<svg xmlns="http://www.w3.org/2000/svg" xmlns:xlink="http://www.w3.org/1999/xlink" width="394" height="394" viewBox="0 0 394 394">
  <defs>
    <circle id="logo-light-b" cx="187" cy="187" r="187"/>
    <filter id="logo-light-a" width="108.6%" height="108.6%" x="-3.7%" y="-3.7%" filterUnits="objectBoundingBox">
      <feMorphology in="SourceAlpha" operator="dilate" radius="1" result="shadowSpreadOuter1"/>
      <feOffset dx="2" dy="2" in="shadowSpreadOuter1" result="shadowOffsetOuter1"/>
      <feGaussianBlur in="shadowOffsetOuter1" result="shadowBlurOuter1" stdDeviation="4"/>
      <feColorMatrix in="shadowBlurOuter1" values="0 0 0 0 0   0 0 0 0 0   0 0 0 0 0  0 0 0 0.7 0"/>
    </filter>
  </defs>
  <g fill="none" fill-rule="evenodd" transform="translate(8 8)">
    <use fill="#000" filter="url(#logo-light-a)" xlink:href="#logo-light-b"/>
    <use fill="#EEE" xlink:href="#logo-light-b"/>
    <path fill="#FC5270" d="M105.398438,275.460938 C97.2773031,275.460938 89.9765949,274.312511 83.4960938,272.015625 C77.0155926,269.718739 71.3965082,266.355491 66.6386719,261.925781 C61.8808356,257.496072 57.9843902,252.061556 54.9492188,245.62207 C51.9140473,239.182585 49.7812562,231.820354 48.5507812,223.535156 L84.3574219,218.244141 C85.9980551,227.923877 88.664044,235.142554 92.3554688,239.900391 C96.0468935,244.658227 100.476537,247.037109 105.644531,247.037109 C111.632842,247.037109 116.390607,244.617212 119.917969,239.777344 C123.44533,234.937476 125.208984,228.005904 125.208984,218.982422 L125.208984,135.433594 L88.171875,135.433594 L88.171875,107.009766 L161.384766,107.009766 L161.384766,218.121094 C161.384766,226.898481 160.133802,234.834925 157.631836,241.930664 C155.12987,249.026403 151.479516,255.055639 146.680664,260.018555 C141.881812,264.98147 136.016636,268.795885 129.084961,271.461914 C122.153286,274.127943 114.257857,275.460938 105.398438,275.460938 Z M330.574219,224.888672 C330.574219,232.107458 329.179701,238.813446 326.390625,245.006836 C323.601549,251.200226 319.376981,256.552712 313.716797,261.064453 C308.056612,265.576194 300.96098,269.103503 292.429688,271.646484 C283.898395,274.189466 273.890682,275.460938 262.40625,275.460938 C243.12881,275.460938 227.419983,271.400431 215.279297,263.279297 C203.138611,255.158163 195.34572,243.345781 191.900391,227.841797 L226.96875,223.289062 C228.855478,231.000039 232.792939,237.090798 238.78125,241.561523 C244.769561,246.032249 252.972604,248.267578 263.390625,248.267578 C268.312525,248.267578 272.72166,247.898441 276.618164,247.160156 C280.514668,246.421871 283.857408,245.23243 286.646484,243.591797 C289.435561,241.951164 291.568352,239.75685 293.044922,237.008789 C294.521492,234.260728 295.259766,230.917988 295.259766,226.980469 C295.259766,222.550759 293.967786,218.920913 291.383789,216.09082 C288.799792,213.260728 285.518575,210.922861 281.540039,209.077148 C277.561504,207.231436 273.152368,205.713873 268.3125,204.524414 C263.472632,203.334955 258.796898,202.125006 254.285156,200.894531 C250.429668,199.82812 246.38967,198.659186 242.165039,197.387695 C237.940409,196.116205 233.818379,194.578134 229.798828,192.773438 C225.779277,190.968741 221.964862,188.856457 218.355469,186.436523 C214.746076,184.016589 211.587904,181.125017 208.880859,177.761719 C206.173815,174.398421 204.020516,170.522483 202.420898,166.133789 C200.821281,161.745095 200.021484,156.720731 200.021484,151.060547 C200.021484,143.021444 201.764631,136.069365 205.250977,130.204102 C208.737322,124.338838 213.392549,119.499043 219.216797,115.68457 C225.041045,111.870098 231.726525,109.040048 239.273438,107.194336 C246.82035,105.348624 254.695271,104.425781 262.898438,104.425781 C281.273529,104.425781 295.628855,108.055628 305.964844,115.31543 C316.300833,122.575232 322.986313,133.833908 326.021484,149.091797 L290.830078,152.660156 C289.025382,145.195275 285.78518,139.576191 281.109375,135.802734 C276.43357,132.029278 270.117227,130.142578 262.160156,130.142578 C256.992162,130.142578 252.706072,130.655268 249.301758,131.680664 C245.897444,132.70606 243.149425,134.100577 241.057617,135.864258 C238.96581,137.627939 237.489262,139.637684 236.62793,141.893555 C235.766597,144.149425 235.335938,146.5078 235.335938,148.96875 C235.335938,152.90627 236.361318,156.166979 238.412109,158.750977 C240.462901,161.334974 243.149397,163.488273 246.47168,165.210938 C249.793962,166.933602 253.608377,168.389642 257.915039,169.579102 C262.221701,170.768561 266.589822,171.937494 271.019531,173.085938 C275.367209,174.152349 279.837868,175.362298 284.431641,176.71582 C289.025414,178.069343 293.537087,179.668936 297.966797,181.514648 C302.396507,183.360361 306.580058,185.534167 310.517578,188.036133 C314.455098,190.538098 317.900376,193.511702 320.853516,196.957031 C323.806655,200.402361 326.16503,204.421852 327.928711,209.015625 C329.692392,213.609398 330.574219,218.900361 330.574219,224.888672 Z"/>
  </g>
</svg>
